<svg xmlns="http://www.w3.org/2000/svg" x="0px" y="0px" width="100" height="100" viewBox="0 0 100 100">
<path fill="#fefdef" d="M12 45.268H50V77.268H12z"></path><path fill="#1f212b" d="M48,78.268H12c-0.552,0-1-0.447-1-1v-32c0-0.553,0.448-1,1-1s1,0.447,1,1v31h35c0.552,0,1,0.447,1,1S48.552,78.268,48,78.268z"></path><path fill="#fefdef" d="M50 45.268H85V79.268H50z"></path><path fill="#1f212b" d="M85,80.268H50c-0.552,0-1-0.447-1-1v-34c0-0.553,0.448-1,1-1h35c0.552,0,1,0.447,1,1v34C86,79.82,85.552,80.268,85,80.268z M51,78.268h33v-32H51V78.268z"></path><path fill="#ceccbe" d="M51 46.268H84V49.268H51z"></path><path fill="#f37e98" d="M12.03 45.268L8.925 45.268 16.222 26.268 20.577 26.268 33.691 26.268 83.001 26.268 88.631 45.268 87.275 45.268z"></path><path fill="#1f212b" d="M88.631,46.268H8.925c-0.33,0-0.638-0.162-0.824-0.434s-0.228-0.617-0.109-0.925l7.297-19c0.148-0.387,0.52-0.642,0.934-0.642H83c0.443,0,0.833,0.291,0.959,0.716l5.631,19c0.089,0.303,0.031,0.63-0.158,0.883S88.947,46.268,88.631,46.268z M10.38,44.268h76.912l-5.038-17H16.909L10.38,44.268z"></path><path fill="#78cdd4" d="M74.5 58.768L74.5 71.768 60.5 71.768 60.5 55.768 72.5 55.768"></path><path fill="#1f212b" d="M74.5,72.264h-14c-0.274,0-0.496-0.222-0.496-0.496v-16c0-0.274,0.222-0.496,0.496-0.496h12c0.274,0,0.496,0.222,0.496,0.496s-0.222,0.496-0.496,0.496H60.996v15.008h13.008V58.768c0-0.274,0.222-0.496,0.496-0.496s0.496,0.222,0.496,0.496v13C74.996,72.042,74.774,72.264,74.5,72.264z"></path><path fill="#1f212b" d="M67.5,72.264c-0.274,0-0.496-0.222-0.496-0.496v-16c0-0.274,0.222-0.496,0.496-0.496s0.496,0.222,0.496,0.496v16C67.996,72.042,67.774,72.264,67.5,72.264z"></path><path fill="#b3b2c3" d="M30.5,76.768V61.345c0-3.618-3.15-6.578-7-6.578c-3.85,0-7,2.96-7,6.578v15.422H30.5z"></path><path fill="#1f212b" d="M30.5,77.264h-14c-0.274,0-0.496-0.222-0.496-0.496V61.346c0-3.9,3.363-7.074,7.496-7.074s7.496,3.174,7.496,7.074v15.422C30.996,77.042,30.774,77.264,30.5,77.264z M16.996,76.272h13.008V61.346c0-3.354-2.917-6.082-6.504-6.082s-6.504,2.729-6.504,6.082V76.272z"></path><path fill="#78a2d2" d="M27.5,64.768v-1.692c0-2.415-1.8-4.391-4-4.391s-4,1.976-4,4.391v1.692H27.5z"></path><path fill="#1f212b" d="M27.5 65.264h-8c-.274 0-.496-.222-.496-.496v-1.692c0-2.695 2.017-4.888 4.496-4.888s4.496 2.192 4.496 4.888v1.692C27.996 65.042 27.774 65.264 27.5 65.264zM19.996 64.272h7.008v-1.196c0-2.148-1.572-3.896-3.504-3.896s-3.504 1.747-3.504 3.896V64.272zM28.5 69.264h-1c-.274 0-.496-.222-.496-.496s.222-.496.496-.496h1c.274 0 .496.222.496.496S28.774 69.264 28.5 69.264z"></path><path fill="#ceccbe" d="M13 46.268H49V48.268H13z"></path><path fill="#78cdd4" d="M42.5 65.768L35.5 65.768 35.5 56.768 43.5 56.768 43.5 63.768"></path><path fill="#1f212b" d="M42.5,66.268h-7c-0.276,0-0.5-0.224-0.5-0.5v-9c0-0.276,0.224-0.5,0.5-0.5h8c0.276,0,0.5,0.224,0.5,0.5v7c0,0.276-0.224,0.5-0.5,0.5s-0.5-0.224-0.5-0.5v-6.5h-7v8h6.5c0.276,0,0.5,0.224,0.5,0.5S42.776,66.268,42.5,66.268z"></path><path fill="#1f212b" d="M39.5,66.268c-0.276,0-0.5-0.224-0.5-0.5v-9c0-0.276,0.224-0.5,0.5-0.5s0.5,0.224,0.5,0.5v9C40,66.044,39.776,66.268,39.5,66.268z"></path><path fill="#fed5b3" d="M72.5 22.768H79.5V36.768H72.5z"></path><path fill="#1f212b" d="M79.5,37.268h-7c-0.276,0-0.5-0.224-0.5-0.5v-14c0-0.276,0.224-0.5,0.5-0.5h7c0.276,0,0.5,0.224,0.5,0.5v14C80,37.044,79.776,37.268,79.5,37.268z M73,36.268h6v-13h-6V36.268z"></path><path fill="#fcba7f" d="M80.5,23.768h-9c-0.55,0-1-0.45-1-1v0c0-0.55,0.45-1,1-1h9c0.55,0,1,0.45,1,1v0C81.5,23.318,81.05,23.768,80.5,23.768z"></path><path fill="#1f212b" d="M80.5 24.268h-9c-.827 0-1.5-.673-1.5-1.5s.673-1.5 1.5-1.5h9c.827 0 1.5.673 1.5 1.5S81.327 24.268 80.5 24.268zM71.5 22.268c-.276 0-.5.225-.5.5s.224.5.5.5h9c.276 0 .5-.225.5-.5s-.224-.5-.5-.5H71.5zM46.5 49.268h-3c-.276 0-.5-.224-.5-.5s.224-.5.5-.5h3c.276 0 .5.224.5.5S46.776 49.268 46.5 49.268zM40.5 49.268h-28c-.276 0-.5-.224-.5-.5s.224-.5.5-.5h28c.276 0 .5.224.5.5S40.776 49.268 40.5 49.268zM85.5 50.268h-26c-.276 0-.5-.224-.5-.5s.224-.5.5-.5h26c.276 0 .5.224.5.5S85.776 50.268 85.5 50.268zM69.5 31.268h-52c-.276 0-.5-.224-.5-.5s.224-.5.5-.5h52c.276 0 .5.224.5.5S69.776 31.268 69.5 31.268zM66.5 34.268h-50c-.276 0-.5-.224-.5-.5s.224-.5.5-.5h50c.276 0 .5.224.5.5S66.776 34.268 66.5 34.268zM64.5 37.268h-49c-.276 0-.5-.224-.5-.5s.224-.5.5-.5h49c.276 0 .5.224.5.5S64.776 37.268 64.5 37.268zM56.5 50.268h-2c-.276 0-.5-.224-.5-.5s.224-.5.5-.5h2c.276 0 .5.224.5.5S56.776 50.268 56.5 50.268z"></path>
</svg>