<svg xmlns="http://www.w3.org/2000/svg" xml:space="preserve" width="2048" height="2048" style="shape-rendering:geometricPrecision;text-rendering:geometricPrecision;image-rendering:optimizeQuality;fill-rule:evenodd;clip-rule:evenodd"><defs><style>.fil3{fill:#bf0000}</style></defs><g id="Layer_x0020_1"><path d="M1800 934v779c0 13-11 23-23 23H288c-13 0-23-11-23-23V934l728-505c22-15 60-14 83 2l726 503h-1z" style="fill:#9c0000"/><path style="fill:#e8e8d0" d="M392 576h1280v838H392z"/><path d="M1121 1200c-30 35-72 59-119 59h-10c-43-3-79-26-104-61-24-33-36-73-38-113v-15c0-6 0-12 1-18 4-51 22-102 55-141 31-36 73-62 122-62h10c37 3 70 21 94 48l3-48 58 3-19 309c-1 16 5 30 18 39 7 5 15 6 23 6 47-2 85-42 103-83 20-44 26-104 14-150v-2c-14-51-41-98-79-136-57-57-134-89-216-89-81 0-158 32-216 89-57 57-89 134-89 216 0 81 32 158 89 216 57 57 134 89 216 89 65 0 128-20 180-59l23-17v72l-7 4c-59 38-127 58-197 58-97 0-188-38-257-106-68-68-106-160-106-257s38-188 106-257c68-68 160-106 257-106s188 38 257 106c45 45 77 101 94 162v1c13 59 9 130-16 185-28 62-84 118-156 121-21 1-41-4-58-16-18-12-29-30-36-49zm-213-125c1 31 9 63 27 88 15 20 36 35 62 37h5c31 0 58-18 77-41 25-30 39-69 42-108v-19c-1-31-9-63-27-88-15-20-36-35-62-37h-5c-31 0-58 18-77 41-25 30-39 69-42 108v19z" style="fill:#37474f"/><path class="fil3" d="m268 1725 608-416-612-375v778c0 5 1 9 4 12zM1800 1713V934h-1l-616 378 613 413c2-4 4-8 4-12z"/><path d="M1797 1725c-4 7-12 11-20 11H288c-8 0-16-4-20-11l724-503c22-15 59-14 83 2l722 501z" style="fill:#d50000"/><path style="fill:none" d="M0 0h2048v2048H0z"/></g></svg>