<svg width="719.3" height="75.201" viewBox="0 0 719.3 75.201" xmlns="http://www.w3.org/2000/svg"><g id="svgGroup" stroke-linecap="round" fill-rule="evenodd" font-size="9pt" stroke="#fafafa" stroke-width="0.35mm" fill="#ffffff30" style="stroke:#fafafa;stroke-width:0.35mm;fill:#ffffff30"><path d="M 566.7 74 L 556.8 74 L 540.4 24.4 L 548.7 21.5 L 562.1 63.8 L 574.3 25.7 L 584 25.7 L 595.9 63.8 L 609.2 21.5 L 617.2 24.4 L 600.7 74 L 590.8 74 L 578.8 35.3 L 566.7 74 Z M 416 68.4 L 409.4 75.2 L 375.4 41.8 L 375.4 74 L 365.9 74 L 365.9 4 L 375.4 4 L 375.4 35.9 L 405.2 3.7 L 411.6 9.6 L 384.3 38 L 416 68.4 Z M 0 68.1 L 4.8 60.1 Q 8.4 63.1 12.9 65 A 23.348 23.348 0 0 0 18.27 66.51 A 32.118 32.118 0 0 0 23.4 66.9 A 27.981 27.981 0 0 0 27.947 66.554 Q 30.37 66.154 32.331 65.293 A 13.701 13.701 0 0 0 34.8 63.9 Q 38.848 61.008 38.995 56.166 A 12.116 12.116 0 0 0 39 55.8 A 11.94 11.94 0 0 0 38.663 52.907 A 9.816 9.816 0 0 0 37.8 50.65 A 8.097 8.097 0 0 0 36.6 48.994 Q 35.33 47.613 33.184 46.271 A 25.81 25.81 0 0 0 33.15 46.25 Q 30.034 44.308 24.265 42.08 A 118.584 118.584 0 0 0 23 41.6 Q 15.8 38.8 11.5 35.95 A 21.931 21.931 0 0 1 8.411 33.502 Q 6.694 31.853 5.638 29.987 A 13.303 13.303 0 0 1 5.35 29.45 Q 3.5 25.8 3.5 20.8 Q 3.5 15.8 6.25 11.75 Q 9 7.7 14.35 5.25 A 25.558 25.558 0 0 1 20.25 3.415 Q 23.493 2.8 27.3 2.8 Q 33.5 2.8 38.45 4.05 Q 43.4 5.3 48.1 7.6 L 44.6 15.7 A 31.496 31.496 0 0 0 40.474 13.681 A 41.686 41.686 0 0 0 36.65 12.35 Q 32.1 11 27.1 11 A 27.187 27.187 0 0 0 23.07 11.28 Q 20.938 11.6 19.2 12.287 A 12.616 12.616 0 0 0 16.7 13.6 A 9.902 9.902 0 0 0 14.537 15.565 A 7.359 7.359 0 0 0 12.9 20.3 A 10.464 10.464 0 0 0 13.192 22.822 A 8.562 8.562 0 0 0 14 24.9 Q 15.056 26.819 18.091 28.647 A 23.503 23.503 0 0 0 18.35 28.8 A 33.003 33.003 0 0 0 20.566 29.972 Q 22.835 31.075 26.046 32.323 A 130.016 130.016 0 0 0 28.1 33.1 A 81.228 81.228 0 0 1 33.078 35.129 Q 37.464 37.1 40.45 39.2 A 26.044 26.044 0 0 1 43.49 41.677 Q 45.713 43.806 46.9 46.15 A 17.579 17.579 0 0 1 48.641 52.013 A 22.155 22.155 0 0 1 48.8 54.7 A 21.71 21.71 0 0 1 48.133 60.201 A 17.105 17.105 0 0 1 45.55 65.8 Q 42.3 70.4 36.55 72.8 A 30.521 30.521 0 0 1 29.14 74.804 A 40.027 40.027 0 0 1 23.4 75.2 Q 16.1 75.2 10.1 73.25 A 38.206 38.206 0 0 1 4.733 71.068 A 28.433 28.433 0 0 1 0 68.1 Z M 325.9 69 L 319.7 75 L 292.8 47.3 L 292.8 74 L 283.8 74 L 283.8 0 L 292.8 0 L 292.8 42.3 L 316.3 21 L 321.5 26.7 L 301.4 44.5 L 325.9 69 Z M 495.7 74 L 486.7 74 L 486.7 22 L 495.4 22 L 495.4 30.7 Q 498.2 26.5 502.55 23.65 A 17.316 17.316 0 0 1 509.656 21.025 A 22.629 22.629 0 0 1 512.9 20.8 A 23.225 23.225 0 0 1 517.965 21.318 Q 523.059 22.456 526.05 26.1 Q 530.175 31.126 530.388 39.209 A 33.764 33.764 0 0 1 530.4 40.1 L 530.4 74 L 521.4 74 L 521.4 41.1 A 19.265 19.265 0 0 0 521.058 37.359 Q 520.619 35.145 519.619 33.397 A 10.966 10.966 0 0 0 518.75 32.1 A 8.579 8.579 0 0 0 512.473 28.747 A 12.061 12.061 0 0 0 511.4 28.7 A 13.122 13.122 0 0 0 504.551 30.664 A 17.353 17.353 0 0 0 502.7 31.95 Q 498.6 35.2 495.7 39.6 L 495.7 74 Z M 167.8 69.8 L 171.6 62.3 A 18.557 18.557 0 0 0 174.744 64.426 Q 176.298 65.27 178.15 65.95 A 24.073 24.073 0 0 0 185.761 67.387 A 27.464 27.464 0 0 0 186.6 67.4 Q 191.992 67.4 194.835 65.685 A 7.738 7.738 0 0 0 195.05 65.55 Q 197.9 63.7 197.9 60.8 A 7.123 7.123 0 0 0 197.586 58.653 A 6.212 6.212 0 0 0 196.85 57.1 A 6.384 6.384 0 0 0 195.921 56.006 Q 194.907 55.034 193.234 54.081 A 22.3 22.3 0 0 0 193 53.95 A 28.462 28.462 0 0 0 191.006 52.957 Q 188.89 51.995 185.901 50.946 A 103.602 103.602 0 0 0 184.9 50.6 A 46.616 46.616 0 0 1 180.502 48.857 Q 178.388 47.883 176.712 46.795 A 19.335 19.335 0 0 1 173.95 44.65 A 11.324 11.324 0 0 1 170.656 38.654 A 16.794 16.794 0 0 1 170.3 35.1 Q 170.3 29.1 175.55 24.95 Q 179.954 21.469 187.208 20.908 A 37.527 37.527 0 0 1 190.1 20.8 A 40.794 40.794 0 0 1 194.546 21.031 Q 196.854 21.284 198.87 21.815 A 25.234 25.234 0 0 1 199 21.85 Q 202.9 22.9 206 24.5 L 203.5 31.9 Q 200.8 30.3 197.35 29.3 A 25.024 25.024 0 0 0 192.867 28.453 A 31.837 31.837 0 0 0 189.7 28.3 A 20.632 20.632 0 0 0 186.763 28.495 Q 183.677 28.94 181.8 30.4 A 9.322 9.322 0 0 0 180.442 31.673 Q 179.74 32.492 179.405 33.365 A 4.529 4.529 0 0 0 179.1 35 A 4.921 4.921 0 0 0 180.595 38.552 A 7.082 7.082 0 0 0 181.2 39.1 Q 183.265 40.772 189.198 42.734 A 84.459 84.459 0 0 0 189.4 42.8 A 67.753 67.753 0 0 1 194.462 44.698 Q 200.389 47.217 203.2 50.1 Q 207.1 54.1 207.1 60.1 Q 207.1 66.848 201.849 70.855 A 16.618 16.618 0 0 1 201.45 71.15 Q 196.71 74.547 189.262 75.095 A 40.423 40.423 0 0 1 186.3 75.2 Q 180.4 75.2 175.65 73.7 A 30.883 30.883 0 0 1 171.81 72.215 Q 169.829 71.284 168.248 70.136 A 18.229 18.229 0 0 1 167.8 69.8 Z M 82.6 74 L 73.2 74 L 52.3 24.4 L 60.5 21 L 78.2 63.8 L 95.9 21 L 103.6 24.4 L 82.6 74 Z M 221.1 56.1 L 221.1 31.7 L 212.1 31.7 L 212.1 23.9 L 221.3 23.9 L 223.2 7.5 L 230.1 7.5 L 230.1 23.9 L 244.5 23.9 L 244.5 31.7 L 230.1 31.7 L 230.1 56.8 A 21.559 21.559 0 0 0 230.268 59.596 Q 230.741 63.202 232.55 64.9 Q 235 67.2 238.4 67.2 Q 240.9 67.2 243.15 66.4 Q 245.4 65.6 247.3 64.5 L 249.8 71.7 A 18.546 18.546 0 0 1 248.182 72.556 Q 247.38 72.935 246.434 73.308 A 43.365 43.365 0 0 1 244.4 74.05 Q 241 75.2 237.3 75.2 Q 229.8 75.2 225.45 70.25 A 16.116 16.116 0 0 1 222.222 64.348 Q 221.459 61.917 221.215 58.98 A 34.777 34.777 0 0 1 221.1 56.1 Z M 146.2 26.2 L 146.2 22 L 154.4 22 L 154.4 61.4 A 12.15 12.15 0 0 0 154.502 63.036 Q 154.834 65.47 156.25 66.35 Q 158.1 67.5 160.3 67.5 L 158.4 74.5 A 17.722 17.722 0 0 1 154.135 74.028 Q 148.498 72.628 146.903 67.08 A 13.59 13.59 0 0 1 146.8 66.7 A 21.307 21.307 0 0 1 143.69 70.126 A 28.498 28.498 0 0 1 140.55 72.55 Q 136.6 75.2 130.5 75.2 Q 124 75.2 118.7 71.9 A 22.947 22.947 0 0 1 111.287 64.373 A 27.923 27.923 0 0 1 110.25 62.55 A 27.228 27.228 0 0 1 107.62 54.608 A 36.644 36.644 0 0 1 107.1 48.3 A 33.142 33.142 0 0 1 108.097 40.031 A 27.968 27.968 0 0 1 110.25 34.3 Q 113.4 28.1 118.95 24.45 A 22.297 22.297 0 0 1 130.145 20.844 A 27.388 27.388 0 0 1 131.7 20.8 A 22.584 22.584 0 0 1 136.494 21.29 A 18.703 18.703 0 0 1 139.85 22.35 A 26.002 26.002 0 0 1 144.137 24.644 A 22.103 22.103 0 0 1 146.2 26.2 Z M 460.6 26.2 L 460.6 22 L 468.8 22 L 468.8 61.4 A 12.15 12.15 0 0 0 468.902 63.036 Q 469.234 65.47 470.65 66.35 Q 472.5 67.5 474.7 67.5 L 472.8 74.5 A 17.722 17.722 0 0 1 468.535 74.028 Q 462.898 72.628 461.303 67.08 A 13.59 13.59 0 0 1 461.2 66.7 A 21.307 21.307 0 0 1 458.09 70.126 A 28.498 28.498 0 0 1 454.95 72.55 Q 451 75.2 444.9 75.2 Q 438.4 75.2 433.1 71.9 A 22.947 22.947 0 0 1 425.687 64.373 A 27.923 27.923 0 0 1 424.65 62.55 A 27.228 27.228 0 0 1 422.02 54.608 A 36.644 36.644 0 0 1 421.5 48.3 A 33.142 33.142 0 0 1 422.497 40.031 A 27.968 27.968 0 0 1 424.65 34.3 Q 427.8 28.1 433.35 24.45 A 22.297 22.297 0 0 1 444.545 20.844 A 27.388 27.388 0 0 1 446.1 20.8 A 22.584 22.584 0 0 1 450.894 21.29 A 18.703 18.703 0 0 1 454.25 22.35 A 26.002 26.002 0 0 1 458.537 24.644 A 22.103 22.103 0 0 1 460.6 26.2 Z M 662.3 26.2 L 662.3 22 L 670.5 22 L 670.5 61.4 A 12.15 12.15 0 0 0 670.602 63.036 Q 670.934 65.47 672.35 66.35 Q 674.2 67.5 676.4 67.5 L 674.5 74.5 A 17.722 17.722 0 0 1 670.235 74.028 Q 664.598 72.628 663.003 67.08 A 13.59 13.59 0 0 1 662.9 66.7 A 21.307 21.307 0 0 1 659.79 70.126 A 28.498 28.498 0 0 1 656.65 72.55 Q 652.7 75.2 646.6 75.2 Q 640.1 75.2 634.8 71.9 A 22.947 22.947 0 0 1 627.387 64.373 A 27.923 27.923 0 0 1 626.35 62.55 A 27.228 27.228 0 0 1 623.72 54.608 A 36.644 36.644 0 0 1 623.2 48.3 A 33.142 33.142 0 0 1 624.197 40.031 A 27.968 27.968 0 0 1 626.35 34.3 Q 629.5 28.1 635.05 24.45 A 22.297 22.297 0 0 1 646.245 20.844 A 27.388 27.388 0 0 1 647.8 20.8 A 22.584 22.584 0 0 1 652.594 21.29 A 18.703 18.703 0 0 1 655.95 22.35 A 26.002 26.002 0 0 1 660.237 24.644 A 22.103 22.103 0 0 1 662.3 26.2 Z M 697.4 74 L 688.4 74 L 688.4 22 L 697.1 22 L 697.1 33.3 Q 698.4 30 700.6 27.15 Q 702.8 24.3 706.1 22.55 A 14.817 14.817 0 0 1 710.78 21.026 A 19.459 19.459 0 0 1 713.8 20.8 Q 715.3 20.8 716.8 20.95 A 18.972 18.972 0 0 1 717.855 21.084 Q 718.355 21.162 718.782 21.262 A 8.817 8.817 0 0 1 719.3 21.4 L 716.6 30.7 A 9.763 9.763 0 0 0 714.455 30.088 Q 713.359 29.9 712.1 29.9 A 12.958 12.958 0 0 0 705.47 31.746 A 15.609 15.609 0 0 0 705.05 32 Q 701.722 34.086 699.578 38.442 A 22.927 22.927 0 0 0 699.55 38.5 Q 697.787 42.107 697.47 47.328 A 39.09 39.09 0 0 0 697.4 49.7 L 697.4 74 Z M 267.8 74 L 258.8 74 L 258.8 22 L 267.8 22 L 267.8 74 Z M 145.4 60.7 L 145.4 32.8 Q 142.7 30.9 139.45 29.75 Q 136.2 28.6 132.6 28.6 A 15.924 15.924 0 0 0 127.629 29.354 A 14.024 14.024 0 0 0 124.15 31.05 A 16.301 16.301 0 0 0 119.131 36.474 A 19.962 19.962 0 0 0 118.4 37.85 A 20.663 20.663 0 0 0 116.647 43.527 A 27.678 27.678 0 0 0 116.3 48 Q 116.3 53.6 118.4 57.95 A 17.602 17.602 0 0 0 121.506 62.496 A 15.697 15.697 0 0 0 124.2 64.75 Q 127.9 67.2 132.5 67.2 Q 136.3 67.2 139.7 65.35 Q 143.1 63.5 145.4 60.7 Z M 459.8 60.7 L 459.8 32.8 Q 457.1 30.9 453.85 29.75 Q 450.6 28.6 447 28.6 A 15.924 15.924 0 0 0 442.029 29.354 A 14.024 14.024 0 0 0 438.55 31.05 A 16.301 16.301 0 0 0 433.531 36.474 A 19.962 19.962 0 0 0 432.8 37.85 A 20.663 20.663 0 0 0 431.047 43.527 A 27.678 27.678 0 0 0 430.7 48 Q 430.7 53.6 432.8 57.95 A 17.602 17.602 0 0 0 435.906 62.496 A 15.697 15.697 0 0 0 438.6 64.75 Q 442.3 67.2 446.9 67.2 Q 450.7 67.2 454.1 65.35 Q 457.5 63.5 459.8 60.7 Z M 661.5 60.7 L 661.5 32.8 Q 658.8 30.9 655.55 29.75 Q 652.3 28.6 648.7 28.6 A 15.924 15.924 0 0 0 643.729 29.354 A 14.024 14.024 0 0 0 640.25 31.05 A 16.301 16.301 0 0 0 635.231 36.474 A 19.962 19.962 0 0 0 634.5 37.85 A 20.663 20.663 0 0 0 632.747 43.527 A 27.678 27.678 0 0 0 632.4 48 Q 632.4 53.6 634.5 57.95 A 17.602 17.602 0 0 0 637.606 62.496 A 15.697 15.697 0 0 0 640.3 64.75 Q 644 67.2 648.6 67.2 Q 652.4 67.2 655.8 65.35 Q 659.2 63.5 661.5 60.7 Z M 258.937 11.288 A 5.973 5.973 0 0 0 263.3 13.1 A 8.175 8.175 0 0 0 264.796 12.969 A 5.647 5.647 0 0 0 267.9 11.35 Q 269.6 9.6 269.6 6.8 A 7.26 7.26 0 0 0 269.6 6.719 A 6.06 6.06 0 0 0 267.75 2.35 A 7.395 7.395 0 0 0 267.692 2.293 A 6.059 6.059 0 0 0 263.3 0.5 A 8.264 8.264 0 0 0 261.644 0.658 A 5.661 5.661 0 0 0 258.7 2.2 A 5.588 5.588 0 0 0 257.229 4.832 A 7.987 7.987 0 0 0 257 6.8 A 5.992 5.992 0 0 0 257.492 9.219 A 6.643 6.643 0 0 0 258.85 11.2 A 7.466 7.466 0 0 0 258.937 11.288 Z" vector-effect="non-scaling-stroke"/></g></svg>