<svg xmlns="http://www.w3.org/2000/svg" x="0px" y="0px" width="100" height="100" viewBox="0 0 48 48">
<rect width="10" height="10" x="19" y="32" fill="#6c19ff"></rect><rect width="24" height="4" x="12" y="38" fill="#6c19ff"></rect><rect width="38" height="23" x="5" y="7" fill="#3dd9eb"></rect><rect width="38" height="5" x="5" y="30" fill="#6c19ff"></rect><rect width="10" height="3" x="19" y="32" fill="#2100c4"></rect><rect width="7" height="3" x="12" y="16" fill="#6c19ff" transform="rotate(-45.001 15.5 17.5)"></rect><rect width="3" height="7" x="13.996" y="16.829" fill="#6c19ff" transform="rotate(-45.001 15.497 20.33)"></rect><rect width="2.998" height="3" x="12.586" y="17.415" fill="#2100c4" transform="rotate(-45.001 14.085 18.916)"></rect><rect width="3" height="7" x="30.997" y="14" fill="#6c19ff" transform="rotate(-45.001 32.498 17.5)"></rect><rect width="7" height="3" x="28.999" y="18.829" fill="#6c19ff" transform="rotate(-45.001 32.5 20.33)"></rect><rect width="3" height="2.998" x="32.411" y="17.416" fill="#2100c4" transform="rotate(-45.001 33.912 18.916)"></rect><polygon fill="#6c19ff" points="24.233,10 20.71,28 23.767,28 27.29,10"></polygon>
</svg>