<!--?xml version="1.0" standalone="no"?-->              <svg id="sw-js-blob-svg" viewBox="0 0 100 100" xmlns="http://www.w3.org/2000/svg" version="1.1">                    <defs>                         <linearGradient id="sw-gradient" x1="0" x2="1" y1="1" y2="0">                            <stop id="stop1" stop-color="rgba(248, 117, 55, 1)" offset="0%"></stop>                            <stop id="stop2" stop-color="rgba(251, 168, 31, 1)" offset="100%"></stop>                        </linearGradient>                    </defs>                <path fill="url(#sw-gradient)" d="M22.3,-25.9C26.8,-22.9,26.7,-13.8,27.6,-5.3C28.6,3.1,30.5,10.9,28.1,17.3C25.7,23.6,18.9,28.5,10.8,32.8C2.6,37.2,-6.9,41.1,-13,37.9C-19.2,34.8,-22.1,24.6,-25.2,16.1C-28.4,7.5,-31.8,0.7,-32.5,-7.5C-33.2,-15.7,-31.2,-25.2,-25.3,-28C-19.4,-30.8,-9.7,-26.9,-0.4,-26.4C8.9,-26,17.9,-29,22.3,-25.9Z" width="100%" height="100%" transform="translate(50 50)" stroke-width="0" style="transition: all 0.3s ease 0s;"></path>              </svg>